@startuml

interface IValueKeeper {
get()
isComplete()
applyData()
}

interface IPacketHandler {
process()
get()
}

class ArrayKeeper

class IncludedHandler
class SimpleHandler

IValueKeeper <|.. ArrayKeeper
IPacketHandler <|.. ArrayKeeper

IPacketHandler <|.. IncludedHandler
IPacketHandler <|.. SimpleHandler
ArrayKeeper --o IncludedHandler
@enduml
